<?xml version="1.0" encoding="utf-8"?>
<!-- Generator: Adobe Illustrator 16.0.0, SVG Export Plug-In . SVG Version: 6.00 Build 0)  -->
<!DOCTYPE svg PUBLIC "-//W3C//DTD SVG 1.1//EN" "http://www.w3.org/Graphics/SVG/1.1/DTD/svg11.dtd">
<svg version="1.1" id="Layer_1" xmlns="http://www.w3.org/2000/svg" xmlns:xlink="http://www.w3.org/1999/xlink" x="0px" y="0px"
	 width="2606px" height="2606px" viewBox="0 0 2606 2606" enable-background="new 0 0 2606 2606" xml:space="preserve">
<g>
	<g>
		<polygon fill="#FFFFFF" stroke="#231F20" stroke-width="13.7116" stroke-miterlimit="10" points="1799.729,2089.245 
			583.065,1957.834 794.449,0.563 2011.048,131.975 		"/>
		<g>
			<path fill="#231F20" d="M1440.643,817.287c-17.163-1.871-33.905-0.238-49.461,4.503c35.863-18.687,62.059-54.354,66.766-97.676
				c7.389-68.683-42.32-130.448-111.076-137.882c-68.666-7.401-130.465,42.337-137.864,111.02
				c-4.529,42.056,12.268,81.514,41.892,107.477c-13.007-6.564-27.432-10.897-42.794-12.563
				c-68.78-7.428-130.437,42.213-137.873,110.941c-7.436,68.718,42.231,130.456,111.021,137.917
				c27.229,2.89,53.295-3.091,75.371-15.734v-0.044l-44.371,143.001l141.975,15.315l-12.991-150.927l0,0
				c19.151,18.214,44.195,30.456,72.554,33.468c68.729,7.391,130.403-42.293,137.84-110.984
				C1559.009,886.311,1509.396,824.681,1440.643,817.287z"/>
			<g>
				<path fill="#231F20" d="M1783.469,330.98c-7.347-0.76-14.551-0.035-21.175,1.952c15.327-7.997,26.506-23.27,28.538-41.742
					c3.129-29.365-18.089-55.773-47.472-58.957c-29.376-3.164-55.774,18.09-58.903,47.431c-1.996,18.017,5.207,34.849,17.873,46.003
					c-5.57-2.836-11.749-4.698-18.31-5.386c-29.367-3.174-55.723,18.045-58.941,47.421c-3.173,29.374,18.046,55.765,47.485,58.966
					c11.617,1.257,22.761-1.331,32.2-6.731v-0.035l-18.954,61.121l60.642,6.571l-5.519-64.492l0,0
					c8.239,7.755,18.927,12.952,31.001,14.273c29.392,3.191,55.762-18.08,58.955-47.448
					C1834.028,360.552,1812.828,334.19,1783.469,330.98z"/>
				
					<text transform="matrix(0.9942 0.1074 -0.1074 0.9942 844.9541 360.7891)" font-family="'MyriadPro-Regular'" font-size="332.039">A</text>
			</g>
		</g>
	</g>
	<g>
		<g>
			<polygon fill="#6A8F5D" points="1302.954,2605.438 537.385,2250.539 537.385,1083.158 2068.615,1083.158 2068.615,2250.539 			
				"/>
			<g>
				<g>
					<g>
						<g>
							<g>
								<rect x="653.389" y="1206.402" fill="#F3F4F4" width="27.958" height="96.717"/>
								<rect x="653.389" y="1350.439" fill="#F3F4F4" width="27.958" height="96.717"/>
								<rect x="653.389" y="1494.466" fill="#F3F4F4" width="27.958" height="96.718"/>
								<rect x="653.389" y="1638.534" fill="#F3F4F4" width="27.958" height="96.696"/>
								<rect x="653.389" y="1782.55" fill="#F3F4F4" width="27.958" height="96.718"/>
								<rect x="653.389" y="1926.618" fill="#F3F4F4" width="27.958" height="96.707"/>
								<rect x="653.389" y="2070.635" fill="#F3F4F4" width="27.958" height="96.696"/>
							</g>
						</g>
					</g>
				</g>
				<g>
					<g>
						<g>
							<g>
								
									<rect x="684.09" y="2194.777" transform="matrix(-0.3868 0.9222 -0.9222 -0.3868 3022.4868 2445.8411)" fill="#F3F4F4" width="27.958" height="66.074"/>
								
									<rect x="774.831" y="2232.839" transform="matrix(-0.3868 0.9222 -0.9222 -0.3868 3183.427 2414.9478)" fill="#F3F4F4" width="27.958" height="66.074"/>
								
									<rect x="865.566" y="2270.897" transform="matrix(-0.3868 0.9222 -0.9222 -0.3868 3344.3577 2383.9763)" fill="#F3F4F4" width="27.957" height="66.073"/>
								
									<rect x="956.32" y="2308.971" transform="matrix(-0.3868 0.9222 -0.9222 -0.3868 3505.3181 2353.1235)" fill="#F3F4F4" width="27.958" height="66.059"/>
								
									<rect x="1047.055" y="2347.021" transform="matrix(-0.3868 0.9222 -0.9222 -0.3868 3666.2454 2322.2651)" fill="#F3F4F4" width="27.958" height="66.074"/>
								
									<rect x="1137.813" y="2385.093" transform="matrix(-0.3868 0.9222 -0.9222 -0.3868 3827.2104 2291.2793)" fill="#F3F4F4" width="27.957" height="66.066"/>
								
									<rect x="1228.538" y="2423.151" transform="matrix(-0.3868 0.9222 -0.9222 -0.3868 3988.1191 2260.3887)" fill="#F3F4F4" width="27.957" height="66.059"/>
							</g>
						</g>
					</g>
				</g>
				<g>
					<g>
						<g>
							<g>
								
									<rect x="1320.306" y="2434.99" transform="matrix(0.3792 0.9253 -0.9253 0.3792 3112.7236 297.998)" fill="#F3F4F4" width="27.958" height="67.403"/>
								
									<rect x="1413.191" y="2396.929" transform="matrix(0.3792 0.9253 -0.9253 0.3792 3135.2007 188.4419)" fill="#F3F4F4" width="27.959" height="67.403"/>
								
									<rect x="1506.069" y="2358.87" transform="matrix(0.3792 0.9253 -0.9253 0.3792 3157.6162 78.8484)" fill="#F3F4F4" width="27.958" height="67.403"/>
								
									<rect x="1598.968" y="2320.811" transform="matrix(0.3792 0.9253 -0.9253 0.3792 3179.958 -30.8184)" fill="#F3F4F4" width="27.957" height="67.388"/>
								
									<rect x="1691.846" y="2282.746" transform="matrix(0.3792 0.9253 -0.9253 0.3792 3202.5132 -140.3174)" fill="#F3F4F4" width="27.958" height="67.403"/>
								
									<rect x="1784.748" y="2244.681" transform="matrix(0.3792 0.9253 -0.9253 0.3792 3224.9641 -249.9165)" fill="#F3F4F4" width="27.958" height="67.396"/>
								
									<rect x="1877.616" y="2206.63" transform="matrix(0.3792 0.9253 -0.9253 0.3792 3247.4077 -359.4751)" fill="#F3F4F4" width="27.958" height="67.389"/>
							</g>
						</g>
					</g>
				</g>
				<g>
					<g>
						<g>
							<g>
								<rect x="1939.568" y="2117.965" fill="#F3F4F4" width="27.957" height="96.717"/>
								<rect x="1939.568" y="1973.928" fill="#F3F4F4" width="27.957" height="96.717"/>
								<rect x="1939.568" y="1829.9" fill="#F3F4F4" width="27.957" height="96.718"/>
								<rect x="1939.568" y="1685.854" fill="#F3F4F4" width="27.957" height="96.696"/>
								<rect x="1939.568" y="1541.816" fill="#F3F4F4" width="27.957" height="96.718"/>
								<rect x="1939.568" y="1397.759" fill="#F3F4F4" width="27.957" height="96.707"/>
								<rect x="1939.568" y="1253.753" fill="#F3F4F4" width="27.957" height="96.696"/>
							</g>
						</g>
					</g>
				</g>
				<g>
					<g>
						<g>
							<g>
								<g>
									<rect x="667.752" y="1192.808" fill="#F3F4F4" width="61.65" height="27.958"/>
									<rect x="759.565" y="1192.808" fill="#F3F4F4" width="61.65" height="27.958"/>
									<rect x="851.372" y="1192.808" fill="#F3F4F4" width="61.65" height="27.958"/>
									<rect x="943.205" y="1192.808" fill="#F3F4F4" width="61.637" height="27.958"/>
									<rect x="1035.005" y="1192.808" fill="#F3F4F4" width="61.65" height="27.958"/>
									<rect x="1126.838" y="1192.808" fill="#F3F4F4" width="61.644" height="27.958"/>
									<rect x="1218.638" y="1192.808" fill="#F3F4F4" width="61.637" height="27.958"/>
								</g>
							</g>
							<g>
								<g>
									<rect x="1310.457" y="1192.808" fill="#F3F4F4" width="61.65" height="27.958"/>
									<rect x="1402.271" y="1192.808" fill="#F3F4F4" width="61.65" height="27.958"/>
									<rect x="1494.077" y="1192.808" fill="#F3F4F4" width="61.65" height="27.958"/>
									<rect x="1585.91" y="1192.808" fill="#F3F4F4" width="61.638" height="27.958"/>
									<rect x="1677.71" y="1192.808" fill="#F3F4F4" width="61.65" height="27.958"/>
									<rect x="1769.543" y="1192.808" fill="#F3F4F4" width="61.645" height="27.958"/>
									<rect x="1861.344" y="1192.808" fill="#F3F4F4" width="61.637" height="27.958"/>
								</g>
							</g>
						</g>
					</g>
				</g>
			</g>
		</g>
		<path fill="#BCBEC0" d="M711.365,1206.402c0,22.902-19.471,41.554-43.613,41.554c-24.026,0-43.612-18.651-43.612-41.554
			c0-23.009,19.586-41.563,43.612-41.563C691.895,1164.84,711.365,1183.394,711.365,1206.402z"/>
		<path fill="#BCBEC0" d="M1996.83,1206.402c0,22.902-19.563,41.554-43.667,41.554c-24.108,0-43.606-18.651-43.606-41.554
			c0-23.009,19.498-41.563,43.606-41.563C1977.268,1164.84,1996.83,1183.394,1996.83,1206.402z"/>
	</g>
</g>
</svg>
