<?xml version="1.0" encoding="utf-8"?>
<!-- Generator: Adobe Illustrator 16.0.0, SVG Export Plug-In . SVG Version: 6.00 Build 0)  -->
<!DOCTYPE svg PUBLIC "-//W3C//DTD SVG 1.1//EN" "http://www.w3.org/Graphics/SVG/1.1/DTD/svg11.dtd">
<svg version="1.1" id="Layer_1" xmlns="http://www.w3.org/2000/svg" xmlns:xlink="http://www.w3.org/1999/xlink" x="0px" y="0px"
	 width="2156.379px" height="822.798px" viewBox="209.538 -382.29 2156.379 822.798"
	 enable-background="new 209.538 -382.29 2156.379 822.798" xml:space="preserve">
<g>
	<g>
		<g>
			<polygon fill="#FFFFFF" stroke="#231F20" stroke-width="4.331" stroke-miterlimit="10" points="608.268,277.454 223.963,235.948 
				290.73,-382.29 675.028,-340.787 			"/>
			<g>
				<path fill="#231F20" d="M494.843-124.318c-5.413-0.586-10.703-0.064-15.633,1.428c11.347-5.904,19.611-17.167,21.097-30.849
					c2.34-21.699-13.371-41.208-35.077-43.557c-21.695-2.337-41.213,13.366-43.553,35.066c-1.438,13.28,3.884,25.749,13.234,33.945
					c-4.111-2.069-8.664-3.444-13.519-3.961c-21.728-2.349-41.2,13.334-43.551,35.041c-2.34,21.705,13.345,41.202,35.07,43.561
					c8.598,0.922,16.832-0.982,23.807-4.972v-0.016l-14.012,45.173l44.837,4.843l-4.098-47.67l0,0
					c6.057,5.748,13.965,9.607,22.908,10.567c21.713,2.338,41.2-13.359,43.548-35.061
					C532.242-102.5,516.561-121.976,494.843-124.318z"/>
				<g>
					<path fill="#231F20" d="M603.129-277.919c-2.317-0.246-4.589-0.021-6.69,0.619c4.854-2.526,8.382-7.345,9.021-13.188
						c0.992-9.281-5.721-17.618-14.995-18.621c-9.276-1.011-17.618,5.709-18.611,14.985c-0.625,5.679,1.654,11.007,5.653,14.515
						c-1.76-0.886-3.707-1.476-5.781-1.694c-9.284-0.999-17.607,5.697-18.621,14.978c-1.001,9.28,5.702,17.625,14.998,18.615
						c3.675,0.405,7.192-0.408,10.177-2.119v-0.005l-5.991,19.309l19.162,2.074l-1.752-20.371l0,0
						c2.597,2.453,5.977,4.094,9.798,4.509c9.276,1.009,17.617-5.708,18.611-14.983
						C619.106-268.585,612.406-276.912,603.129-277.919z"/>
					
						<text transform="matrix(0.9942 0.1074 -0.1074 0.9942 306.6931 -268.5012)" font-family="'MyriadPro-Regular'" font-size="104.8801">A</text>
				</g>
			</g>
		</g>
		<g>
			<g>
				<polygon fill="#6A8F5D" points="451.363,440.508 209.538,328.401 209.538,-40.33 693.198,-40.33 693.198,328.401 				"/>
				<g>
					<g>
						<g>
							<g>
								<g>
									<rect x="246.183" y="-1.408" fill="#F3F4F4" width="8.831" height="30.55"/>
									<rect x="246.183" y="44.087" fill="#F3F4F4" width="8.831" height="30.551"/>
									<rect x="246.183" y="89.58" fill="#F3F4F4" width="8.831" height="30.55"/>
									<rect x="246.183" y="135.086" fill="#F3F4F4" width="8.831" height="30.543"/>
									<rect x="246.183" y="180.576" fill="#F3F4F4" width="8.831" height="30.549"/>
									<rect x="246.183" y="226.082" fill="#F3F4F4" width="8.831" height="30.546"/>
									<rect x="246.183" y="271.573" fill="#F3F4F4" width="8.831" height="30.544"/>
								</g>
							</g>
						</g>
					</g>
					<g>
						<g>
							<g>
								<g>
									
										<rect x="255.881" y="310.753" transform="matrix(0.3868 -0.9222 0.9222 0.3868 -136.572 436.9975)" fill="#F3F4F4" width="8.832" height="20.871"/>
									
										<rect x="284.544" y="322.777" transform="matrix(0.3868 -0.9222 0.9222 0.3868 -130.0825 470.8089)" fill="#F3F4F4" width="8.83" height="20.871"/>
									
										<rect x="313.203" y="334.799" transform="matrix(0.3869 -0.9221 0.9221 0.3869 -123.6096 504.5652)" fill="#F3F4F4" width="8.83" height="20.871"/>
									
										<rect x="341.832" y="346.845" transform="matrix(0.3868 -0.9222 0.9222 0.3868 -117.1465 538.3897)" fill="#F3F4F4" width="8.832" height="20.867"/>
									
										<rect x="370.492" y="358.867" transform="matrix(0.3868 -0.9222 0.9222 0.3868 -110.6598 572.1934)" fill="#F3F4F4" width="8.832" height="20.872"/>
									
										<rect x="399.161" y="370.894" transform="matrix(0.3869 -0.9221 0.9221 0.3869 -104.1888 605.9609)" fill="#F3F4F4" width="8.83" height="20.869"/>
									
										<rect x="427.852" y="382.896" transform="matrix(0.3868 -0.9222 0.9222 0.3868 -97.6421 639.8224)" fill="#F3F4F4" width="8.832" height="20.867"/>
								</g>
							</g>
						</g>
					</g>
					<g>
						<g>
							<g>
								<g>
									
										<rect x="456.85" y="386.691" transform="matrix(-0.3792 -0.9253 0.9253 -0.3792 268.5023 974.8157)" fill="#F3F4F4" width="8.831" height="21.289"/>
									
										<rect x="486.193" y="374.636" transform="matrix(-0.3792 -0.9253 0.9253 -0.3792 320.1125 985.3372)" fill="#F3F4F4" width="8.829" height="21.29"/>
									
										<rect x="515.523" y="362.644" transform="matrix(-0.3792 -0.9253 0.9253 -0.3792 371.6727 995.9436)" fill="#F3F4F4" width="8.831" height="21.29"/>
									
										<rect x="544.868" y="350.59" transform="matrix(-0.3792 -0.9253 0.9253 -0.3792 423.3006 1006.4688)" fill="#F3F4F4" width="8.831" height="21.285"/>
									
										<rect x="574.201" y="338.595" transform="matrix(-0.3792 -0.9253 0.9253 -0.3792 474.8542 1017.0711)" fill="#F3F4F4" width="8.831" height="21.288"/>
									
										<rect x="603.545" y="326.571" transform="matrix(-0.3792 -0.9253 0.9253 -0.3792 526.4511 1027.6381)" fill="#F3F4F4" width="8.831" height="21.287"/>
									
										<rect x="632.877" y="314.518" transform="matrix(-0.3791 -0.9253 0.9253 -0.3791 578.03 1038.1528)" fill="#F3F4F4" width="8.832" height="21.284"/>
								</g>
							</g>
						</g>
					</g>
					<g>
						<g>
							<g>
								<g>
									<rect x="652.436" y="286.523" fill="#F3F4F4" width="8.831" height="30.549"/>
									<rect x="652.436" y="241.027" fill="#F3F4F4" width="8.831" height="30.55"/>
									<rect x="652.436" y="195.533" fill="#F3F4F4" width="8.831" height="30.55"/>
									<rect x="652.436" y="150.033" fill="#F3F4F4" width="8.831" height="30.544"/>
									<rect x="652.436" y="104.536" fill="#F3F4F4" width="8.831" height="30.55"/>
									<rect x="652.436" y="59.033" fill="#F3F4F4" width="8.831" height="30.547"/>
									<rect x="652.436" y="13.548" fill="#F3F4F4" width="8.831" height="30.542"/>
								</g>
							</g>
						</g>
					</g>
					<g>
						<g>
							<g>
								<g>
									<g>
										<rect x="250.72" y="-5.702" fill="#F3F4F4" width="19.473" height="8.831"/>
										<rect x="279.72" y="-5.702" fill="#F3F4F4" width="19.473" height="8.831"/>
										<rect x="308.719" y="-5.702" fill="#F3F4F4" width="19.473" height="8.831"/>
										<rect x="337.724" y="-5.702" fill="#F3F4F4" width="19.469" height="8.831"/>
										<rect x="366.72" y="-5.702" fill="#F3F4F4" width="19.473" height="8.831"/>
										<rect x="395.727" y="-5.702" fill="#F3F4F4" width="19.471" height="8.831"/>
										<rect x="424.722" y="-5.702" fill="#F3F4F4" width="19.469" height="8.831"/>
									</g>
								</g>
								<g>
									<g>
										<rect x="453.725" y="-5.702" fill="#F3F4F4" width="19.473" height="8.831"/>
										<rect x="482.725" y="-5.702" fill="#F3F4F4" width="19.473" height="8.831"/>
										<rect x="511.723" y="-5.702" fill="#F3F4F4" width="19.473" height="8.831"/>
										<rect x="540.729" y="-5.702" fill="#F3F4F4" width="19.469" height="8.831"/>
										<rect x="569.725" y="-5.702" fill="#F3F4F4" width="19.473" height="8.831"/>
										<rect x="598.732" y="-5.702" fill="#F3F4F4" width="19.471" height="8.831"/>
										<rect x="627.727" y="-5.702" fill="#F3F4F4" width="19.469" height="8.831"/>
									</g>
								</g>
							</g>
						</g>
					</g>
				</g>
			</g>
			<path fill="#BCBEC0" d="M264.497-1.408c0,7.243-6.161,13.125-13.776,13.125c-7.607,0-13.777-5.882-13.777-13.125
				c0-7.255,6.17-13.126,13.777-13.126C258.336-14.535,264.497-8.665,264.497-1.408z"/>
			<path fill="#BCBEC0" d="M670.525-1.408c0,7.243-6.179,13.125-13.795,13.125c-7.604,0-13.774-5.882-13.774-13.125
				c0-7.255,6.17-13.126,13.774-13.126C664.346-14.535,670.525-8.665,670.525-1.408z"/>
		</g>
	</g>
	<g>
		<path d="M751.673-62.138h65.913c38.682,0,60.94,19.015,60.94,52.729c0,35.439-22.259,55.971-60.94,55.971h-27.447v42.571h-38.466
			V-62.138z M815.639,16.307c16.856,0,26.581-8.429,26.581-24.42c0-15.775-9.725-23.772-26.581-23.772h-25.501v48.192H815.639z"/>
		<path d="M919.364-27.347l28.525,77.365l25.284-77.365h37.17l-50.352,128.584c-8.645,21.179-23.34,31.551-44.949,31.551
			c-12.967,0-23.558-3.889-33.931-11.886l15.562-25.5c5.402,4.321,9.939,6.268,15.342,6.268c6.699,0,11.454-3.024,14.479-9.293
			l2.809-5.836L880.897-27.347H919.364z"/>
		<path d="M1027.41,36.62c15.56,13.614,38.899,22.69,54.675,22.69c12.103,0,19.665-4.54,19.665-13.184
			c0-26.796-79.958-10.806-79.958-64.398c0-27.876,23.987-45.6,60.293-45.6c21.826,0,44.086,6.7,59.646,16.856l-14.479,30.04
			c-15.992-9.294-36.09-15.776-48.408-15.776c-9.94,0-16.641,3.675-16.641,11.022c0,26.146,79.958,11.236,79.958,65.911
			c0,30.253-26.796,46.244-60.509,46.244c-25.284,0-51.217-9.507-69.154-24.201L1027.41,36.62z"/>
		<path d="M1216.929-28.642c38.035,0,63.535,23.555,63.535,59.427c0,35.876-25.5,59.646-63.535,59.646
			c-38.25,0-63.751-23.771-63.751-59.646C1153.178-5.088,1178.679-28.642,1216.929-28.642z M1216.929,61.474
			c15.345,0,25.934-12.104,25.934-30.257c0-17.938-10.589-30.254-25.934-30.254c-15.56,0-26.147,12.316-26.147,30.254
			C1190.782,49.369,1201.371,61.474,1216.929,61.474z"/>
		<path d="M1301.637-71.216h37.388V89.133h-37.388V-71.216z"/>
		<path d="M1420.275-62.138h112.158v30.253h-73.688V3.123h67.854v30.255h-67.854v55.756h-38.47V-62.138z"/>
		<path d="M1586.236,19.115h30.689v-1.728c0-11.452-7.564-18.367-22.691-18.367c-9.725,0-22.474,3.456-34.793,9.724l-10.591-24.635
			c18.153-8.428,34.581-13.183,54.028-13.183c31.982,0,50.568,15.773,50.786,42.14v76.068h-36.524V75.738
			c-7.563,9.939-19.879,15.126-35.654,15.126c-24.854,0-39.982-15.126-39.982-36.521
			C1541.504,32.297,1557.281,19.332,1586.236,19.115z M1592.938,65.579c11.669,0,21.61-6.482,23.987-15.992V39.213h-23.556
			c-11.237,0-16.857,3.89-16.857,12.535C1576.512,60.176,1582.565,65.579,1592.938,65.579z"/>
		<path d="M1680.236-27.347h37.389v19.019c8.211-13.616,21.61-20.531,38.897-20.746c25.716,0,42.573,17.505,42.573,44.733v73.475
			h-37.17V26.031c0-13.613-7.997-22.041-20.53-22.041c-13.614,0-22.259,9.725-23.771,23.555v61.59h-37.389V-27.347z"/>
		<path d="M1946.902-63.437c22.477,0,45.815,9.942,60.944,25.501l-22.26,26.366c-9.943-12.104-24.638-19.666-38.035-19.666
			c-23.988,0-42.142,19.015-42.142,43.869c0,25.284,18.152,44.518,42.142,44.518c12.75,0,27.447-6.915,38.035-17.72l22.476,23.771
			c-16.209,16.642-40.198,27.661-62.455,27.661c-45.601,0-79.528-33.495-79.528-77.798
			C1866.079-30.589,1900.873-63.437,1946.902-63.437z"/>
		<path d="M2026.422-71.216h37.39V89.133h-37.39V-71.216z"/>
		<path d="M2091.253-27.347h37.386v62.887c0,13.831,7.563,22.259,19.448,22.259c14.266-0.215,22.692-11.884,22.692-27.66v-57.485
			h37.386v116.48h-37.386V69.902c-7.998,13.83-20.965,20.746-37.82,20.746c-25.283,0-41.706-17.291-41.706-44.52V-27.347z"/>
		<path d="M2239.061-71.216h37.386v59.212c8.215-10.589,20.1-16.64,34.797-16.64c32.848,0,54.673,23.987,54.673,60.078
			c0,35.438-21.182,58.993-53.809,58.993c-15.13,0-27.446-6.051-35.661-16.854v15.559h-37.386V-71.216z M2302.165,60.824
			c15.561,0,26.15-12.534,26.15-30.469c0-17.722-10.591-30.255-26.15-30.255c-15.126,0-25.718,12.533-25.718,30.255
			C2276.447,48.506,2287.039,60.824,2302.165,60.824z"/>
	</g>
</g>
</svg>
