<?xml version="1.0" encoding="utf-8"?>
<!-- Generator: Adobe Illustrator 16.0.0, SVG Export Plug-In . SVG Version: 6.00 Build 0)  -->
<!DOCTYPE svg PUBLIC "-//W3C//DTD SVG 1.1//EN" "http://www.w3.org/Graphics/SVG/1.1/DTD/svg11.dtd">
<svg version="1.1" id="Layer_1" xmlns="http://www.w3.org/2000/svg" xmlns:xlink="http://www.w3.org/1999/xlink" x="0px" y="0px"
	 width="841.89px" height="595.28px" viewBox="0 0 841.89 595.28" enable-background="new 0 0 841.89 595.28" xml:space="preserve">
<g>
	<g>
		<g>
			<polygon fill="#FFFFFF" stroke="#231F20" stroke-width="4.331" stroke-miterlimit="10" points="-265.679,545.984 
				-649.985,504.477 -583.217,-113.76 -198.919,-72.258 			"/>
			<g>
				<path fill="#231F20" d="M-379.105,144.211c-5.413-0.586-10.703-0.064-15.633,1.428c11.347-5.904,19.612-17.167,21.097-30.849
					c2.34-21.699-13.371-41.208-35.077-43.556c-21.695-2.337-41.213,13.366-43.553,35.066c-1.437,13.28,3.884,25.749,13.235,33.945
					c-4.112-2.069-8.664-3.444-13.519-3.961c-21.727-2.348-41.2,13.334-43.551,35.041c-2.34,21.706,13.345,41.203,35.071,43.561
					c8.597,0.922,16.832-0.982,23.806-4.972v-0.015l-14.011,45.173l44.836,4.842l-4.097-47.67l0,0
					c6.056,5.748,13.965,9.608,22.908,10.568c21.713,2.338,41.2-13.36,43.548-35.061
					C-341.705,166.03-357.386,146.553-379.105,144.211z"/>
				<g>
					<path fill="#231F20" d="M-270.819-9.389c-2.317-0.246-4.588-0.021-6.69,0.619c4.854-2.527,8.382-7.345,9.02-13.188
						c0.993-9.281-5.72-17.618-14.995-18.621c-9.276-1.011-17.618,5.709-18.611,14.986c-0.625,5.678,1.654,11.006,5.653,14.514
						c-1.759-0.886-3.707-1.475-5.781-1.694c-9.284-0.999-17.607,5.697-18.621,14.977c-1.001,9.281,5.702,17.625,14.998,18.616
						c3.675,0.405,7.192-0.409,10.177-2.12v-0.004l-5.991,19.308l19.162,2.074l-1.752-20.371l0,0
						c2.596,2.453,5.976,4.094,9.798,4.509c9.276,1.009,17.617-5.708,18.611-14.983C-254.841-0.055-261.541-8.383-270.819-9.389z"/>
					
						<text transform="matrix(0.9942 0.1074 -0.1074 0.9942 -567.2544 0.0283)" font-family="'MyriadPro-Regular'" font-size="104.8801">A</text>
				</g>
			</g>
		</g>
		<g>
			<g>
				<polygon fill="#6A8F5D" points="-422.584,709.039 -664.409,596.931 -664.409,228.199 -180.749,228.199 -180.749,596.931 				"/>
				<g>
					<g>
						<g>
							<g>
								<g>
									<rect x="-627.764" y="267.121" fill="#F3F4F4" width="8.831" height="30.55"/>
									<rect x="-627.764" y="312.617" fill="#F3F4F4" width="8.831" height="30.55"/>
									<rect x="-627.764" y="358.11" fill="#F3F4F4" width="8.831" height="30.55"/>
									<rect x="-627.764" y="403.616" fill="#F3F4F4" width="8.831" height="30.543"/>
									<rect x="-627.764" y="449.106" fill="#F3F4F4" width="8.831" height="30.549"/>
									<rect x="-627.764" y="494.612" fill="#F3F4F4" width="8.831" height="30.546"/>
									<rect x="-627.764" y="540.102" fill="#F3F4F4" width="8.831" height="30.544"/>
								</g>
							</g>
						</g>
					</g>
					<g>
						<g>
							<g>
								<g>
									
										<rect x="-618.066" y="579.315" transform="matrix(-0.3868 0.9222 -0.9222 -0.3868 -307.142 1383.7429)" fill="#F3F4F4" width="8.831" height="20.871"/>
									
										<rect x="-589.403" y="591.338" transform="matrix(-0.3868 0.9222 -0.9222 -0.3868 -256.3063 1373.9841)" fill="#F3F4F4" width="8.831" height="20.87"/>
									
										<rect x="-560.743" y="603.36" transform="matrix(-0.3868 0.9222 -0.9222 -0.3868 -205.4741 1364.2257)" fill="#F3F4F4" width="8.831" height="20.871"/>
									
										<rect x="-532.076" y="615.386" transform="matrix(-0.3868 0.9222 -0.9222 -0.3868 -154.6683 1354.4841)" fill="#F3F4F4" width="8.831" height="20.866"/>
									
										<rect x="-503.415" y="627.406" transform="matrix(-0.3868 0.9222 -0.9222 -0.3868 -103.8346 1344.7275)" fill="#F3F4F4" width="8.831" height="20.871"/>
									
										<rect x="-474.748" y="639.432" transform="matrix(-0.3868 0.9222 -0.9222 -0.3868 -52.9884 1334.9677)" fill="#F3F4F4" width="8.831" height="20.869"/>
									
										<rect x="-446.09" y="651.454" transform="matrix(-0.3868 0.9222 -0.9222 -0.3868 -2.1266 1325.1896)" fill="#F3F4F4" width="8.831" height="20.866"/>
								</g>
							</g>
						</g>
					</g>
					<g>
						<g>
							<g>
								<g>
									
										<rect x="-417.104" y="655.194" transform="matrix(0.3792 0.9253 -0.9253 0.3792 359.9107 795.2402)" fill="#F3F4F4" width="8.831" height="21.29"/>
									
										<rect x="-387.766" y="643.172" transform="matrix(0.3792 0.9253 -0.9253 0.3792 367.0034 760.5979)" fill="#F3F4F4" width="8.83" height="21.29"/>
									
										<rect x="-358.431" y="631.15" transform="matrix(0.3792 0.9253 -0.9253 0.3792 374.0869 726.0211)" fill="#F3F4F4" width="8.831" height="21.29"/>
									
										<rect x="-329.089" y="619.127" transform="matrix(0.3792 0.9253 -0.9253 0.3792 381.1785 691.3756)" fill="#F3F4F4" width="8.83" height="21.285"/>
									
										<rect x="-299.754" y="607.103" transform="matrix(0.3792 0.9253 -0.9253 0.3792 388.2639 656.7969)" fill="#F3F4F4" width="8.831" height="21.289"/>
									
										<rect x="-270.411" y="595.079" transform="matrix(0.3792 0.9253 -0.9253 0.3792 395.3536 622.1799)" fill="#F3F4F4" width="8.831" height="21.287"/>
									
										<rect x="-241.079" y="583.06" transform="matrix(0.3792 0.9253 -0.9253 0.3792 402.4407 587.5425)" fill="#F3F4F4" width="8.832" height="21.285"/>
								</g>
							</g>
						</g>
					</g>
					<g>
						<g>
							<g>
								<g>
									<rect x="-221.511" y="555.052" fill="#F3F4F4" width="8.831" height="30.55"/>
									<rect x="-221.511" y="509.556" fill="#F3F4F4" width="8.831" height="30.55"/>
									<rect x="-221.511" y="464.063" fill="#F3F4F4" width="8.831" height="30.55"/>
									<rect x="-221.511" y="418.563" fill="#F3F4F4" width="8.831" height="30.544"/>
									<rect x="-221.511" y="373.066" fill="#F3F4F4" width="8.831" height="30.55"/>
									<rect x="-221.511" y="327.563" fill="#F3F4F4" width="8.831" height="30.547"/>
									<rect x="-221.511" y="282.077" fill="#F3F4F4" width="8.831" height="30.543"/>
								</g>
							</g>
						</g>
					</g>
					<g>
						<g>
							<g>
								<g>
									<g>
										<rect x="-623.227" y="262.827" fill="#F3F4F4" width="19.473" height="8.831"/>
										<rect x="-594.227" y="262.827" fill="#F3F4F4" width="19.473" height="8.831"/>
										<rect x="-565.229" y="262.827" fill="#F3F4F4" width="19.473" height="8.831"/>
										<rect x="-536.223" y="262.827" fill="#F3F4F4" width="19.469" height="8.831"/>
										<rect x="-507.227" y="262.827" fill="#F3F4F4" width="19.473" height="8.831"/>
										<rect x="-478.22" y="262.827" fill="#F3F4F4" width="19.471" height="8.831"/>
										<rect x="-449.225" y="262.827" fill="#F3F4F4" width="19.469" height="8.831"/>
									</g>
								</g>
								<g>
									<g>
										<rect x="-420.222" y="262.827" fill="#F3F4F4" width="19.473" height="8.831"/>
										<rect x="-391.222" y="262.827" fill="#F3F4F4" width="19.473" height="8.831"/>
										<rect x="-362.224" y="262.827" fill="#F3F4F4" width="19.473" height="8.831"/>
										<rect x="-333.218" y="262.827" fill="#F3F4F4" width="19.469" height="8.831"/>
										<rect x="-304.222" y="262.827" fill="#F3F4F4" width="19.473" height="8.831"/>
										<rect x="-275.215" y="262.827" fill="#F3F4F4" width="19.471" height="8.831"/>
										<rect x="-246.22" y="262.827" fill="#F3F4F4" width="19.469" height="8.831"/>
									</g>
								</g>
							</g>
						</g>
					</g>
				</g>
			</g>
			<path fill="#BCBEC0" d="M-609.45,267.121c0,7.244-6.162,13.125-13.777,13.125c-7.607,0-13.777-5.881-13.777-13.125
				c0-7.255,6.17-13.126,13.777-13.126C-615.612,253.994-609.45,259.865-609.45,267.121z"/>
			<path fill="#BCBEC0" d="M-203.422,267.121c0,7.244-6.179,13.125-13.795,13.125c-7.604,0-13.774-5.881-13.774-13.125
				c0-7.255,6.169-13.126,13.774-13.126C-209.601,253.994-203.422,259.865-203.422,267.121z"/>
		</g>
	</g>
	<g>
		<path d="M-122.275,206.391h65.913c38.682,0,60.941,19.015,60.941,52.729c0,35.44-22.259,55.971-60.941,55.971h-27.447v42.572
			h-38.466V206.391z M-58.308,284.836c16.857,0,26.581-8.429,26.581-24.42c0-15.775-9.724-23.772-26.581-23.772h-25.501v48.192
			H-58.308z"/>
		<path d="M45.417,241.182l28.525,77.365l25.284-77.365h37.17L86.045,369.766c-8.645,21.179-23.34,31.551-44.95,31.551
			c-12.966,0-23.557-3.889-33.93-11.886l15.561-25.5c5.403,4.321,9.94,6.268,15.342,6.268c6.699,0,11.454-3.025,14.48-9.293
			l2.808-5.836L6.95,241.182H45.417z"/>
		<path d="M153.463,305.15c15.559,13.614,38.899,22.69,54.674,22.69c12.103,0,19.665-4.54,19.665-13.183
			c0-26.796-79.958-10.806-79.958-64.399c0-27.876,23.988-45.6,60.293-45.6c21.827,0,44.086,6.701,59.646,16.857l-14.48,30.04
			c-15.992-9.294-36.089-15.776-48.408-15.776c-9.94,0-16.64,3.674-16.64,11.022c0,26.147,79.958,11.236,79.958,65.911
			c0,30.253-26.796,46.245-60.509,46.245c-25.284,0-51.217-9.507-69.154-24.202L153.463,305.15z"/>
		<path d="M342.982,239.887c38.035,0,63.535,23.555,63.535,59.427c0,35.876-25.5,59.646-63.535,59.646
			c-38.25,0-63.751-23.77-63.751-59.646C279.231,263.442,304.732,239.887,342.982,239.887z M342.982,330.003
			c15.345,0,25.934-12.104,25.934-30.256c0-17.938-10.589-30.255-25.934-30.255c-15.559,0-26.147,12.317-26.147,30.255
			C316.835,317.899,327.424,330.003,342.982,330.003z"/>
		<path d="M427.69,197.314h37.388v160.349H427.69V197.314z"/>
		<path d="M546.328,206.391h112.158v30.253h-73.689v35.009h67.855v30.255h-67.855v55.756h-38.469V206.391z"/>
		<path d="M712.289,287.644h30.689v-1.728c0-11.452-7.564-18.367-22.691-18.367c-9.725,0-22.474,3.456-34.793,9.724l-10.591-24.635
			c18.153-8.428,34.581-13.183,54.028-13.183c31.983,0,50.568,15.774,50.786,42.14v76.069h-36.524v-13.397
			c-7.563,9.94-19.879,15.126-35.655,15.126c-24.853,0-39.982-15.126-39.982-36.52C667.556,300.827,683.333,287.862,712.289,287.644
			z M718.991,334.109c11.669,0,21.61-6.483,23.987-15.992v-10.374h-23.556c-11.237,0-16.857,3.889-16.857,12.535
			C702.565,328.706,708.618,334.109,718.991,334.109z"/>
		<path d="M806.289,241.182h37.388V260.2c8.211-13.616,21.611-20.531,38.898-20.746c25.715,0,42.573,17.505,42.573,44.734v73.475
			h-37.17V294.56c0-13.613-7.997-22.041-20.53-22.041c-13.614,0-22.259,9.724-23.771,23.555v61.59h-37.388V241.182z"/>
		<path d="M1072.955,205.092c22.476,0,45.815,9.942,60.944,25.501l-22.26,26.366c-9.943-12.103-24.638-19.666-38.035-19.666
			c-23.988,0-42.142,19.015-42.142,43.869c0,25.285,18.153,44.518,42.142,44.518c12.75,0,27.447-6.915,38.035-17.72l22.476,23.771
			c-16.209,16.642-40.198,27.661-62.455,27.661c-45.601,0-79.529-33.495-79.529-77.798
			C992.131,237.941,1026.925,205.092,1072.955,205.092z"/>
		<path d="M1152.474,197.314h37.39v160.349h-37.39V197.314z"/>
		<path d="M1217.305,241.182h37.386v62.887c0,13.831,7.563,22.259,19.448,22.259c14.266-0.215,22.692-11.884,22.692-27.661v-57.485
			h37.386v116.481h-37.386v-19.232c-7.998,13.83-20.964,20.746-37.82,20.746c-25.283,0-41.706-17.291-41.706-44.519V241.182z"/>
		<path d="M1365.114,197.314h37.386v59.212c8.214-10.589,20.099-16.64,34.796-16.64c32.848,0,54.673,23.987,54.673,60.078
			c0,35.439-21.181,58.994-53.808,58.994c-15.13,0-27.447-6.051-35.661-16.854v15.559h-37.386V197.314z M1428.217,329.354
			c15.561,0,26.151-12.534,26.151-30.469c0-17.722-10.591-30.255-26.151-30.255c-15.126,0-25.717,12.533-25.717,30.255
			C1402.5,317.036,1413.091,329.354,1428.217,329.354z"/>
	</g>
</g>
</svg>
