<svg xmlns="http://www.w3.org/2000/svg" xml:space="preserve" width="1531.23" height="2612.427"><g style="display:inline"><path fill="#fff" stroke="#231f20" stroke-miterlimit="10" stroke-width="13.712" d="m2011.048 131.975-211.319 1957.27-1216.664-131.411L794.449.563z" style="display:inline" transform="translate(-537.385 6.99)"/><path fill="#231f20" d="M903.258 824.276c-17.163-1.87-33.905-.238-49.461 4.503 35.863-18.687 62.059-54.354 66.766-97.676 7.389-68.683-42.32-130.448-111.076-137.882-68.666-7.4-130.465 42.337-137.864 111.02-4.529 42.056 12.268 81.514 41.892 107.477-13.007-6.564-27.432-10.897-42.794-12.563-68.78-7.428-130.437 42.213-137.873 110.941-7.436 68.718 42.231 130.456 111.021 137.917 27.229 2.89 53.295-3.09 75.371-15.734v-.044l-44.371 143.001 141.975 15.315-12.991-150.927c19.151 18.214 44.195 30.456 72.554 33.468 68.729 7.391 130.403-42.293 137.84-110.984 7.377-68.808-42.236-130.438-110.989-137.832m342.826-486.306c-7.347-.76-14.551-.036-21.175 1.951 15.327-7.997 26.506-23.27 28.538-41.742 3.129-29.365-18.089-55.773-47.472-58.957-29.376-3.164-55.774 18.09-58.903 47.431-1.996 18.017 5.207 34.85 17.873 46.003-5.57-2.836-11.749-4.698-18.31-5.386-29.367-3.174-55.723 18.045-58.941 47.421-3.173 29.374 18.046 55.765 47.485 58.966 11.617 1.257 22.761-1.33 32.2-6.73v-.036l-18.954 61.121 60.642 6.571-5.519-64.492c8.239 7.755 18.927 12.952 31.001 14.273 29.392 3.191 55.762-18.08 58.955-47.448 3.139-29.375-18.061-55.737-47.42-58.947z"/><g style="display:inline"><path d="m1048.267 273.204-23.561-68.694h-79.71l-23.408 68.694h-29.681L970.24 48.761h29.68l78.334 224.443zm-31.058-93.939-22.643-69.153q-1.071-3.825-2.907-10.098-1.836-6.426-3.825-13.004-1.836-6.579-3.06-11.169-1.224 5.967-2.907 12.393-1.53 6.272-3.212 11.933t-2.907 9.792l-22.797 69.306z" aria-label="A" style="font-size:313.333px;font-family:&quot;Open Sans&quot;;-inkscape-font-specification:&quot;Open Sans, @wght=458,wdth=93.9&quot;;font-variation-settings:&quot;wdth&quot;93.9,&quot;wght&quot;458;stroke-width:.999984" transform="rotate(6.166 -333.578 -4985.54)"/></g></g><g style="display:inline"><g style="display:inline"><path fill="#6a8f5d" d="m2068.615 2250.539-765.661 354.899-765.569-354.899V1083.158h1531.23z" style="display:inline" transform="translate(-537.385 6.99)"/><path d="M515.113 1060.887v88.424h44.545v-43.881h35.574v-44.543zm134.563 0v44.543h115.691v-44.543zm170.136 0v44.543h115.692v-44.543zm170.137 0v44.543h115.692v-44.543zm170.137 0v44.543h115.691v-44.543zm170.137 0v44.543h115.691v-44.543zm170.136 0v44.543h115.692v-44.543zm170.137 0v44.543h115.691v-44.543zm170.137 0v44.543h115.691v-44.543zm170.135 0v44.543h35.574v43.88h44.545v-88.423zM515.113 1211.57v132.303h44.545V1211.57zm1531.229 0v132.303h44.545V1211.57ZM515.113 1406.133v132.305h44.545v-132.305zm1531.229 0v132.305h44.545v-132.305ZM515.113 1600.697V1733h44.545v-132.303zm1531.229 0V1733h44.545v-132.303ZM515.113 1795.26v132.305h44.545V1795.26zm1531.229 0v132.305h44.545V1795.26ZM515.113 1989.824v132.303h44.545v-132.303zm1531.229 0v132.303h44.545v-132.303ZM515.113 2184.387v80.377l12.905 5.982 52.058 24.133 18.735-40.414-39.153-18.15v-51.928zm1531.229 0v51.927l-39.158 18.15 18.732 40.415 64.97-30.115v-80.377zm-88.16 92.79-104.131 48.268 18.734 40.414 104.13-48.267zm-1310.375 0-18.735 40.413 104.117 48.267 18.735-40.414zm153.115 70.98-18.735 40.413 104.118 48.266 18.734-40.412zm1004.127 0-104.13 48.265 18.733 40.414 104.13-48.266zm-851.014 70.98-18.734 40.414 104.117 48.265 18.734-40.414zm697.881 0-104.129 48.265 18.732 40.414 104.131-48.265zm-153.13 70.978-104.132 48.268 18.733 40.414 104.13-48.268zm-391.638 0-18.734 40.412 104.117 48.268 18.735-40.414zm153.114 70.979-18.735 40.414 61.426 28.474 61.432-28.474-18.733-40.414-42.697 19.79z" style="color:#000;fill:#f3f4f4;-inkscape-stroke:none" transform="translate(-339.958 286.433)scale(.84848)"/></g><path fill="#bcbec0" d="M697.002 1198.484c0 22.902-19.471 41.554-43.613 41.554-24.026 0-43.612-18.651-43.612-41.554 0-23.01 19.586-41.563 43.612-41.563 24.143 0 43.613 18.555 43.613 41.563m1299.276 0c0 22.902-19.563 41.554-43.667 41.554-24.108 0-43.606-18.651-43.606-41.554 0-23.01 19.498-41.563 43.606-41.563 24.105 0 43.667 18.555 43.667 41.563" style="display:inline" transform="translate(-537.385 6.99)"/></g></svg>