<?xml version="1.0" encoding="UTF-8" standalone="no"?>
<!-- Generator: Adobe Illustrator 16.0.0, SVG Export Plug-In . SVG Version: 6.00 Build 0)  -->

<svg
   version="1.1"
   id="Layer_1"
   x="0px"
   y="0px"
   width="1531.23"
   height="2612.4275"
   viewBox="0 0 1531.23 2612.4275"
   enable-background="new 0 0 2606 2606"
   xml:space="preserve"
   sodipodi:docname="logo.svg"
   inkscape:version="1.3 (0e150ed6c4, 2023-07-21)"
   xmlns:inkscape="http://www.inkscape.org/namespaces/inkscape"
   xmlns:sodipodi="http://sodipodi.sourceforge.net/DTD/sodipodi-0.dtd"
   xmlns="http://www.w3.org/2000/svg"
   xmlns:svg="http://www.w3.org/2000/svg"><defs
   id="defs61" /><sodipodi:namedview
   id="namedview61"
   pagecolor="#ffffff"
   bordercolor="#666666"
   borderopacity="1.0"
   inkscape:showpageshadow="2"
   inkscape:pageopacity="0.0"
   inkscape:pagecheckerboard="0"
   inkscape:deskcolor="#d1d1d1"
   inkscape:zoom="0.44013814"
   inkscape:cx="222.65737"
   inkscape:cy="328.30602"
   inkscape:window-width="2560"
   inkscape:window-height="1361"
   inkscape:window-x="-9"
   inkscape:window-y="41"
   inkscape:window-maximized="1"
   inkscape:current-layer="g61" />&#10;<g
   id="g61"
   transform="translate(-1074.77,6.9894166)">&#10;	<g
   id="g4"
   style="display:inline"
   transform="translate(537.385)">&#10;		<polygon
   fill="#ffffff"
   stroke="#231f20"
   stroke-width="13.7116"
   stroke-miterlimit="10"
   points="2011.048,131.975 1799.729,2089.245 583.065,1957.834 794.449,0.563 "
   id="polygon1"
   style="display:inline" />&#10;		<g
   id="g3">&#10;			<path
   fill="#231f20"
   d="m 1440.643,817.287 c -17.163,-1.871 -33.905,-0.238 -49.461,4.503 35.863,-18.687 62.059,-54.354 66.766,-97.676 7.389,-68.683 -42.32,-130.448 -111.076,-137.882 -68.666,-7.401 -130.465,42.337 -137.864,111.02 -4.529,42.056 12.268,81.514 41.892,107.477 -13.007,-6.564 -27.432,-10.897 -42.794,-12.563 -68.78,-7.428 -130.437,42.213 -137.873,110.941 -7.436,68.718 42.231,130.456 111.021,137.917 27.229,2.89 53.295,-3.091 75.371,-15.734 v -0.044 l -44.371,143.001 141.975,15.315 -12.991,-150.927 v 0 c 19.151,18.214 44.195,30.456 72.554,33.468 68.729,7.391 130.403,-42.293 137.84,-110.984 7.377,-68.808 -42.236,-130.438 -110.989,-137.832 z"
   id="path1" />&#10;			<g
   id="g2">&#10;				<path
   fill="#231f20"
   d="m 1783.469,330.98 c -7.347,-0.76 -14.551,-0.035 -21.175,1.952 15.327,-7.997 26.506,-23.27 28.538,-41.742 3.129,-29.365 -18.089,-55.773 -47.472,-58.957 -29.376,-3.164 -55.774,18.09 -58.903,47.431 -1.996,18.017 5.207,34.849 17.873,46.003 -5.57,-2.836 -11.749,-4.698 -18.31,-5.386 -29.367,-3.174 -55.723,18.045 -58.941,47.421 -3.173,29.374 18.046,55.765 47.485,58.966 11.617,1.257 22.761,-1.331 32.2,-6.731 v -0.035 l -18.954,61.121 60.642,6.571 -5.519,-64.492 v 0 c 8.239,7.755 18.927,12.952 31.001,14.273 29.392,3.191 55.762,-18.08 58.955,-47.448 3.139,-29.375 -18.061,-55.737 -47.42,-58.947 z"
   id="path2" />&#10;				&#10;					<path
   d="M 180.96126,0 152.4059,-73.380619 H 58.438864 L 30.215549,0 H 0 L 92.638881,-238.07196 H 119.53404 L 211.84088,0 Z m -37.52041,-99.943739 -26.56312,-71.720421 q -0.99612,-2.65632 -3.32039,-9.62913 -2.32427,-6.97282 -4.64855,-14.27768 -1.99223,-7.6369 -3.32039,-11.62137 -2.65631,10.29321 -5.644661,20.25438 -2.656312,9.62913 -4.648546,15.2738 l -26.895159,71.720421 z"
   id="text2"
   style="font-size:332.039px;font-family:MyriadPro-Regular"
   transform="matrix(0.9942,0.1074,-0.1074,0.9942,844.9541,360.7891)"
   aria-label="A" />&#10;			</g>&#10;		</g>&#10;	</g>&#10;	<g
   id="g60"
   style="display:inline"
   transform="translate(537.385)">&#10;		<g
   id="g59"
   style="display:inline">&#10;			<polygon
   fill="#6a8f5d"
   points="2068.615,2250.539 1302.954,2605.438 537.385,2250.539 537.385,1083.158 2068.615,1083.158 "
   id="polygon4"
   style="display:inline" />&#10;			&#10;		<path
   style="color:#000000;fill:#f3f4f4;-inkscape-stroke:none"
   d="m 515.11328,1060.8867 v 88.4238 h 44.54492 v -43.8808 h 35.57422 v -44.543 z m 134.5625,0 v 44.543 h 115.69141 v -44.543 z m 170.13672,0 v 44.543 h 115.69141 v -44.543 z m 170.13672,0 v 44.543 h 115.69138 v -44.543 z m 170.13668,0 v 44.543 h 115.6914 v -44.543 z m 170.1368,0 v 44.543 h 115.6914 v -44.543 z m 170.1367,0 v 44.543 h 115.6914 v -44.543 z m 170.1367,0 v 44.543 h 115.6914 v -44.543 z m 170.1367,0 v 44.543 h 115.6914 v -44.543 z m 170.1348,0 v 44.543 h 35.5742 v 43.8808 h 44.5449 v -88.4238 z M 515.11328,1211.5703 v 132.3027 h 44.54492 v -132.3027 z m 1531.22852,0 v 132.3027 h 44.5449 V 1211.5703 Z M 515.11328,1406.1328 v 132.3047 h 44.54492 v -132.3047 z m 1531.22852,0 v 132.3047 h 44.5449 V 1406.1328 Z M 515.11328,1600.6973 V 1733 h 44.54492 v -132.3027 z m 1531.22852,0 V 1733 h 44.5449 V 1600.6973 Z M 515.11328,1795.2598 v 132.3047 h 44.54492 v -132.3047 z m 1531.22852,0 v 132.3047 h 44.5449 V 1795.2598 Z M 515.11328,1989.8242 v 132.3028 h 44.54492 v -132.3028 z m 1531.22852,0 v 132.3028 h 44.5449 V 1989.8242 Z M 515.11328,2184.3867 v 80.377 l 12.9043,5.9824 52.05859,24.1328 18.73438,-40.4141 -39.15235,-18.1503 v -51.9278 z m 1531.22852,0 v 51.9278 l -39.1582,18.1503 18.7324,40.4141 64.9707,-30.1152 v -80.377 z m -88.1602,92.791 -104.1308,48.2676 18.7344,40.4141 104.1289,-48.2676 z m -1310.37496,0 -18.73437,40.4121 104.11718,48.2676 18.73438,-40.4141 z m 153.11523,70.9785 -18.73437,40.4141 104.11719,48.2656 18.73437,-40.4121 z m 1004.12693,0 -104.1289,48.2656 18.7324,40.4141 104.129,-48.2656 z m -851.01364,70.9805 -18.73438,40.414 104.11722,48.2657 18.7343,-40.4141 z m 697.88084,0 -104.1289,48.2656 18.7324,40.4141 104.1309,-48.2657 z m -153.1308,70.9785 -104.1309,48.2676 18.7324,40.414 104.1309,-48.2675 z m -391.6368,0 -18.7343,40.4122 104.1172,48.2675 18.7343,-40.414 z m 153.1133,70.9786 -18.7344,40.414 61.4258,28.4746 61.4317,-28.4746 -18.7325,-40.414 -42.6972,19.791 z"
   id="polygon61"
   transform="matrix(0.84848262,0,0,0.84848262,197.42715,279.4432)" /></g>&#10;		<path
   fill="#bcbec0"
   d="m 697.00198,1198.4839 c 0,22.902 -19.471,41.554 -43.613,41.554 -24.026,0 -43.612,-18.651 -43.612,-41.554 0,-23.009 19.586,-41.563 43.612,-41.563 24.143,10e-4 43.613,18.555 43.613,41.563 z"
   id="path59"
   style="display:inline" />&#10;		<path
   fill="#bcbec0"
   d="m 1996.278,1198.4839 c 0,22.902 -19.563,41.554 -43.667,41.554 -24.108,0 -43.606,-18.651 -43.606,-41.554 0,-23.009 19.498,-41.563 43.606,-41.563 24.105,10e-4 43.667,18.555 43.667,41.563 z"
   id="path60"
   style="display:inline" />&#10;	</g>&#10;</g>&#10;</svg>
