/* XPM */
static char *magick[] = {
/* columns rows colors chars-per-pixel */
"32 32 11 1",
"  c Gray0",
". c #191919",
"X c Gray20",
"o c #4c4c4c",
"O c #666667",
"+ c Gray60",
"@ c #b2b2b2",
"# c Gray80",
"$ c Gray90",
"% c Gray100",
"& c None",
/* pixels */
"&&&&&&&&&&&&&&&&&&&&&&&&&&&&&&&&",
"&&&&&&&&&&&&&&+@@@&&&&&&&&&&&&&&",
"&&&&&&&&&&&&@o    o@&&&&&&&&&&&&",
"&&&&&&&&&&&#        #&&&&&&&&&&&",
"&&&&&&&&&&#          #&&&&&&&&&&",
"&&&&&&&&&&            &&&&&&&&&&",
"&&&&&&&&&+            @&&&&&&&&&",
"&&&&&&&&&o            o&&&&&&&&&",
"&&&&&&&&&o            o&&&&&&&&&",
"&&&&&&&&&o            o&&&&&&&&&",
"&&&&&&&&&#            #&&&&&&&&&",
"&&&&&&&&&&.          .&&&&&&&&&&",
"&&&&&&$$$$&X        X&$$$$&&&&&&",
"&&&&$@    +@X      X@+    @$&&&&",
"&&&&X      .+@    @@       X&&&&",
"&&&X        .&$  $&         X&&&",
"&&o           $  $           o&&",
"&&.           +  +           .$&",
"&+                            +&",
"&+                            +&",
"&+                            +&",
"&#            O  O            #&",
"&&o           $  $           o&&",
"&&$          @&  &@         .$&&",
"&&&&        .$&  &&+        &&&&",
"&&&&$O    o+&&+  +&&+o    O$&&&&",
"&&&&&&@+@+&&&&    &&&&+@+@&&&&&&",
"&&&&&&&&&&&&&O    O&&&&&&&&&&&&&",
"&&&&&&&&&&&&&.    .&&&&&&&&&&&&&",
"&&&&&&&&&&&$.      .$&&&&&&&&&&&",
"&&&&&&&&&&&$+++@@@++$&&&&&&&&&&&",
"&&&&&&&&&&&&&&&&&&&&&&&&&&&&&&&&"
};
